<svg width="46" height="46" viewBox="0 0 46 46" fill="none" xmlns="http://www.w3.org/2000/svg">
<path d="M27.3125 18.6875H35.9375V21.5625H27.3125V18.6875ZM18.6875 30.1875H15.8125V27.3125H12.9375V30.1875H10.0625V33.0625H12.9375V35.9375H15.8125V33.0625H18.6875V30.1875ZM10.0625 12.9375H18.6875V15.8125H10.0625V12.9375ZM27.3125 24.4375H35.9375V27.3125H27.3125V24.4375Z" fill="#2E4581"/>
<path d="M38.8125 4.3125H7.1875C6.42524 4.31326 5.69441 4.61641 5.15541 5.15541C4.61641 5.69441 4.31326 6.42524 4.3125 7.1875V38.8125C4.31326 39.5748 4.61641 40.3056 5.15541 40.8446C5.69441 41.3836 6.42524 41.6867 7.1875 41.6875H38.8125C39.5748 41.6867 40.3056 41.3836 40.8446 40.8446C41.3836 40.3056 41.6867 39.5748 41.6875 38.8125V7.1875C41.6867 6.42524 41.3836 5.69441 40.8446 5.15541C40.3056 4.61641 39.5748 4.31326 38.8125 4.3125ZM21.5625 7.1875V21.5625H7.1875V7.1875H21.5625ZM7.1875 24.4375H21.5625V38.8125H7.1875V24.4375ZM24.4375 38.8125V7.1875H38.8125V38.8125H24.4375Z" fill="#2E4581"/>
</svg>
