<svg width="49" height="49" viewBox="0 0 49 49" fill="none" xmlns="http://www.w3.org/2000/svg">
<g clip-path="url(#clip0_216_174)">
<path d="M35.6426 12.4407C36.0118 12.8099 36.2193 13.3106 36.2193 13.8328C36.2193 14.3549 36.0118 14.8557 35.6426 15.2249L26.8259 24.0416L35.6426 32.8584C36.0118 33.2276 36.2193 33.7283 36.2193 34.2505C36.2193 34.7726 36.0118 35.2734 35.6426 35.6426C35.2734 36.0118 34.7727 36.2192 34.2505 36.2192C33.7284 36.2192 33.2276 36.0118 32.8584 35.6426L24.0417 26.8259L15.2249 35.6426C14.8557 36.0118 14.355 36.2192 13.8328 36.2192C13.3107 36.2192 12.8099 36.0118 12.4407 35.6426C12.0715 35.2734 11.8641 34.7726 11.8641 34.2505C11.8641 33.7283 12.0715 33.2276 12.4407 32.8584L21.2574 24.0416L12.4407 15.2249C12.0715 14.8557 11.8641 14.3549 11.8641 13.8328C11.8641 13.3106 12.0715 12.8099 12.4407 12.4407C12.8099 12.0714 13.3107 11.864 13.8328 11.864C14.355 11.864 14.8557 12.0714 15.2249 12.4407L24.0417 21.2574L32.8584 12.4407C33.2276 12.0714 33.7284 11.864 34.2505 11.864C34.7727 11.864 35.2734 12.0714 35.6426 12.4407Z" fill="#ED8263"/>
</g>
<defs>
<clipPath id="clip0_216_174">
<rect y="24.0416" width="34" height="34" rx="17" transform="rotate(-45 0 24.0416)" fill="white"/>
</clipPath>
</defs>
</svg>
