<svg width="50" height="50" viewBox="0 0 50 50" fill="none" xmlns="http://www.w3.org/2000/svg">
<g clip-path="url(#clip0_202_5)">
<path d="M42.5694 33.8889C40.3377 31.4708 37.6294 29.5411 34.6152 28.2213C31.601 26.9014 28.3461 26.22 25.0556 26.22C21.765 26.22 18.5101 26.9014 15.4959 28.2213C12.4817 29.5411 9.77341 31.4708 7.54167 33.8889C7.19711 34.2699 7.00436 34.7641 7 35.2777V43.6111C7.0073 44.1588 7.23002 44.6816 7.61993 45.0663C8.00984 45.451 8.53558 45.6667 9.08333 45.6666H41.0278C41.5803 45.6666 42.1102 45.4471 42.5009 45.0564C42.8916 44.6657 43.1111 44.1358 43.1111 43.5833V35.25C43.1 34.7459 42.9077 34.2627 42.5694 33.8889Z" fill="#2E4581"/>
<path d="M25.0557 23.4444C30.4252 23.4444 34.7779 19.0917 34.7779 13.7222C34.7779 8.35279 30.4252 4 25.0557 4C19.6863 4 15.3335 8.35279 15.3335 13.7222C15.3335 19.0917 19.6863 23.4444 25.0557 23.4444Z" fill="#2E4581"/>
</g>
<defs>
<clipPath id="clip0_202_5">
<path d="M0 10C0 4.47715 4.47715 0 10 0H50V40C50 45.5228 45.5228 50 40 50H10C4.47715 50 0 45.5228 0 40V10Z" fill="white"/>
</clipPath>
</defs>
</svg>
