<svg width="46" height="46" viewBox="0 0 46 46" fill="none" xmlns="http://www.w3.org/2000/svg">
<path d="M25.875 15.3333H23V24.9167L31.2034 29.785L32.5834 27.4658L25.875 23.4792V15.3333ZM24.9167 5.75C20.3417 5.75 15.9541 7.56741 12.7191 10.8024C9.48409 14.0374 7.66669 18.425 7.66669 23H1.91669L9.50669 30.7242L17.25 23H11.5C11.5 19.4417 12.9136 16.0291 15.4297 13.513C17.9458 10.9969 21.3584 9.58333 24.9167 9.58333C28.475 9.58333 31.8876 10.9969 34.4037 13.513C36.9198 16.0291 38.3334 19.4417 38.3334 23C38.3334 26.5583 36.9198 29.9709 34.4037 32.487C31.8876 35.0031 28.475 36.4167 24.9167 36.4167C21.2175 36.4167 17.8634 34.9025 15.4484 32.4683L12.7267 35.19C14.3203 36.8012 16.2192 38.0785 18.3122 38.9473C20.4053 39.8161 22.6505 40.259 24.9167 40.25C29.4917 40.25 33.8793 38.4326 37.1143 35.1976C40.3493 31.9626 42.1667 27.575 42.1667 23C42.1667 18.425 40.3493 14.0374 37.1143 10.8024C33.8793 7.56741 29.4917 5.75 24.9167 5.75Z" fill="#2E4581"/>
</svg>
