<svg width="34" height="34" viewBox="0 0 34 34" fill="none" xmlns="http://www.w3.org/2000/svg">
<g clip-path="url(#clip0_203_28)">
<path d="M33.4062 17C33.4062 17.5221 33.1988 18.0229 32.8296 18.3921C32.4604 18.7613 31.9596 18.9688 31.4375 18.9688H18.9688V31.4375C18.9688 31.9596 18.7613 32.4604 18.3921 32.8296C18.0229 33.1988 17.5221 33.4062 17 33.4062C16.4779 33.4062 15.9771 33.1988 15.6079 32.8296C15.2387 32.4604 15.0313 31.9596 15.0312 31.4375V18.9688H2.5625C2.04036 18.9688 1.5396 18.7613 1.17038 18.3921C0.801171 18.0229 0.59375 17.5221 0.59375 17C0.59375 16.4779 0.801171 15.9771 1.17038 15.6079C1.5396 15.2387 2.04036 15.0313 2.5625 15.0312H15.0312V2.5625C15.0312 2.04036 15.2387 1.5396 15.6079 1.17038C15.9771 0.801171 16.4779 0.59375 17 0.59375C17.5221 0.59375 18.0229 0.801171 18.3921 1.17038C18.7613 1.5396 18.9688 2.04036 18.9688 2.5625V15.0312H31.4375C31.9596 15.0313 32.4604 15.2387 32.8296 15.6079C33.1988 15.9771 33.4062 16.4779 33.4062 17Z" fill="#2E4581"/>
</g>
<defs>
<clipPath id="clip0_203_28">
<rect width="34" height="34" rx="17" fill="white"/>
</clipPath>
</defs>
</svg>
