<svg width="46" height="46" viewBox="0 0 46 46" fill="none" xmlns="http://www.w3.org/2000/svg">
<path fill-rule="evenodd" clip-rule="evenodd" d="M27.3681 4.12465C26.6589 3.83331 25.7581 3.83331 23.9583 3.83331C22.1586 3.83331 21.2597 3.83331 20.5486 4.12465C19.6045 4.51222 18.8531 5.25886 18.4594 6.2004C18.2792 6.62781 18.2102 7.12806 18.1815 7.85448C18.1687 8.3808 18.0219 8.89517 17.7549 9.34894C17.488 9.80271 17.1097 10.1809 16.6558 10.4477C16.1934 10.7048 15.6736 10.8409 15.1446 10.8436C14.6156 10.8463 14.0944 10.7154 13.6294 10.4631C12.9816 10.1219 12.512 9.93406 12.0482 9.87273C11.0334 9.73949 10.007 10.0123 9.19233 10.6317C8.58283 11.0956 8.13241 11.8699 7.23349 13.4166C6.33266 14.9634 5.88416 15.7358 5.78258 16.4929C5.64841 17.5011 5.92441 18.5207 6.54924 19.3276C6.83291 19.6956 7.23349 20.0042 7.85258 20.3914C8.76683 20.9606 9.35333 21.9305 9.35333 23C9.35333 24.0695 8.76683 25.0393 7.85449 25.6066C7.23349 25.9957 6.83291 26.3043 6.54733 26.6723C6.2389 27.0709 6.01252 27.5266 5.88126 28.0132C5.74999 28.4997 5.71645 29.0075 5.78258 29.5071C5.88416 30.2622 6.33266 31.0366 7.23349 32.5833C8.13433 34.1301 8.58283 34.9025 9.19233 35.3682C10.005 35.9873 11.0323 36.2595 12.0482 36.1272C12.512 36.0659 12.9816 35.8781 13.6294 35.5369C14.0946 35.2842 14.6161 35.1531 15.1455 35.1558C15.675 35.1585 16.1951 35.2949 16.6577 35.5522C17.5892 36.0889 18.1412 37.076 18.1815 38.1455C18.2102 38.8738 18.2792 39.3721 18.4594 39.7996C18.8504 40.7387 19.6017 41.4862 20.5486 41.8753C21.2577 42.1666 22.1586 42.1666 23.9583 42.1666C25.7581 42.1666 26.6589 42.1666 27.3681 41.8753C28.3121 41.4877 29.0636 40.7411 29.4572 39.7996C29.6374 39.3721 29.7064 38.8738 29.7352 38.1455C29.7735 37.076 30.3274 36.087 31.2608 35.5522C31.7232 35.2952 32.243 35.159 32.7721 35.1564C33.3011 35.1537 33.8223 35.2846 34.2872 35.5369C34.9351 35.8781 35.4047 36.0659 35.8685 36.1272C36.8843 36.2614 37.9117 35.9873 38.7243 35.3682C39.3338 34.9044 39.7842 34.1301 40.6832 32.5833C41.584 31.0366 42.0325 30.2641 42.1341 29.5071C42.1999 29.0073 42.1661 28.4995 42.0345 28.0129C41.9029 27.5264 41.6762 27.0707 41.3674 26.6723C41.0837 26.3043 40.6832 25.9957 40.0641 25.6086C39.1498 25.0393 38.5633 24.0695 38.5633 23C38.5633 21.9305 39.1498 20.9606 40.0622 20.3933C40.6832 20.0042 41.0837 19.6956 41.3693 19.3276C41.6777 18.9291 41.9041 18.4734 42.0354 17.9868C42.1667 17.5002 42.2002 16.9925 42.1341 16.4929C42.0325 15.7377 41.584 14.9634 40.6832 13.4166C39.7823 11.8699 39.3338 11.0975 38.7243 10.6317C37.9096 10.0123 36.8833 9.73949 35.8685 9.87273C35.4047 9.93406 34.9351 10.1219 34.2872 10.4631C33.822 10.7157 33.3005 10.8468 32.7711 10.8441C32.2417 10.8415 31.7216 10.7051 31.2589 10.4477C30.8054 10.1807 30.4275 9.80238 30.1609 9.34862C29.8943 8.89486 29.7477 8.38062 29.7352 7.85448C29.7064 7.12615 29.6374 6.62781 29.4572 6.2004C29.2624 5.73414 28.9776 5.31084 28.6192 4.95467C28.2607 4.59851 27.8356 4.31646 27.3681 4.12465ZM23.9583 28.75C27.1592 28.75 29.7524 26.1759 29.7524 23C29.7524 19.8241 27.1572 17.25 23.9583 17.25C20.7575 17.25 18.1642 19.8241 18.1642 23C18.1642 26.1759 20.7594 28.75 23.9583 28.75Z" fill="#2E4581"/>
</svg>
