<svg width="23" height="22" viewBox="0 0 23 22" fill="none" xmlns="http://www.w3.org/2000/svg">
<g id="Group">
<path id="Vector" d="M9.10661 8.88C8.81475 9.15465 8.58066 9.48585 8.4183 9.85385C8.25594 10.2218 8.16863 10.6191 8.1616 11.0219C8.15456 11.4247 8.22793 11.8248 8.37733 12.1984C8.52674 12.5719 8.74912 12.9113 9.0312 13.1962C9.31328 13.481 9.64929 13.7056 10.0192 13.8565C10.3891 14.0074 10.7853 14.0815 11.1841 14.0744C11.583 14.0673 11.9763 13.9791 12.3407 13.8151C12.7051 13.6512 13.0331 13.4147 13.305 13.12M9.94827 4.08C10.3655 4.02751 10.7854 4.00079 11.2058 4C18.1372 4 21.1078 11 21.1078 11C20.6651 11.9571 20.1099 12.8569 19.4542 13.68" stroke="#5678D0" stroke-width="2" stroke-linecap="round" stroke-linejoin="round"/>
<path id="Vector_2" d="M5.86876 5.61C3.89951 6.96462 2.32373 8.82526 1.30396 11C1.30396 11 4.27454 18 11.2059 18C13.103 18.0051 14.9595 17.4451 16.5431 16.39M1.30396 1L21.1079 21" stroke="#5678D0" stroke-width="2" stroke-linecap="round" stroke-linejoin="round"/>
</g>
</svg>
